<?xml version="1.0" encoding="UTF-8"?>
<svg id="Layer_1" data-name="Layer 1" xmlns="http://www.w3.org/2000/svg" viewBox="0 0 967.05 967.05">
  <defs>
    <style>
      .cls-1 {
        fill: #232323;
        stroke-width: 0px;
      }
    </style>
  </defs>
  <path class="cls-1" d="M331.26,333.25c-37.27-23.72-86.73-46.54-158.61-42.07-13.88.86-26.55,4.28-23.57,15.15l38.36,29.38c14.14,10.83,23.44,26.9,25.42,44.6.02.19.04.38.07.57,1.35,11.13,12.98,17.88,23.3,13.5l96.38-43.06c8.42-3.57,6.37-13.16-1.35-18.08Z"/>
  <path class="cls-1" d="M388.25,656.44c-26.91,35.04-65.58,73.4-134.66,93.78-13.34,3.93-26.41,5.06-27.33-6.17l26-40.73c9.58-15.01,12.83-33.29,8.63-50.6-.05-.19-.09-.37-.13-.56-2.54-10.92,6.08-21.24,17.28-20.66l105.3,7.5c9.14.47,10.49,10.19,4.92,17.45Z"/>
  <path class="cls-1" d="M166.39,507.96l7.18,40.7c1.16,6.6,3.29,12.54,5.63,15.74l37.19,19.22c7.31,2.96,15.01-3.28,13.65-11.04l-18.77-106.42c-1.37-7.76-10.74-10.99-16.6-5.71l-28.37,30.78c-1.11,3.81-1.07,10.12.09,16.72Z"/>
  <g>
    <path class="cls-1" d="M811.49,408.43c-1.85-7.07-8.49-21.01-32.13-35-25.34-15-62.73-25.84-111.15-32.23-26.99-3.56-55.7-5.36-85.32-5.36-69.25,0-142.21,9.87-205.45,27.79-61.94,17.55-107.92,40.77-129.47,65.4-9.88,11.29-14.16,22.47-12.72,33.24.84,6.26,1.65,12.52,2.46,18.73,6.28,48.31,12.77,98.27,26.62,109.54,8.64,7.03,24.8,13.35,45.49,17.81,23.2,4.99,51.81,7.63,82.75,7.63h.01c50.4,0,132.23-6.92,235.86-39.89,43.94-13.98,80.87-30.54,109.77-49.23,23.84-15.42,42.37-32.36,55.07-50.36,9.77-13.85,15.99-28.11,18.47-42.37,2.33-13.41.6-22.43-.26-25.69ZM488.25,423.38l-.83,14.13c-2.18,9.27-11.12,20.75-24.13,16.56-60.36-19.45-113.23,5.65-108.11,14.8,10.81,19.32,133.24-6.68,132.89,49.87-.26,41.96-123.7,53.32-159.15,58.17-8.72,1.19-16.04-5.95-16.39-14.74h0c-.11-12.38,6.31-17.38,19.75-18.24,70.58-4.47,82.07-22.92,72.59-33.74-17.41-19.88-86.63,12.15-93.11-32.82-7.85-54.53,91.54-71.28,146.18-81.54,16.36-3.07,31.27,10.93,30.3,27.54ZM663.08,460.18c-3.07.51-3.95,4.09-1.49,6.11,13.95,11.37,26.7,20.61,34.91,28.08,11.4,10.25,4.27,15.62-5.96,18.45-26.53,7.31-51.24,15.24-59.16,3.59-7.35-10.96-10.06-18.84-15.45-37.85-3.41-12.21-49.54-4.15-43.56,15.1,12.17,37.89,4.99,35.84-24.66,39.34-36.08,4.27-14.09-3.38-32.15-106.71-1.78-10.93-.39-24.9,7.53-29.57,36.94-22.05,164.09-49.76,187.03,9.26,16.99,38.89-27.97,51.05-47.03,54.2Z"/>
    <path class="cls-1" d="M620.34,398.97c-12.32,1.69-32.11,5.51-48.25,10.48-4.68,1.44-7.91,7.33-5.2,19.68,3.58,16.07,10.55,17.46,13.96,17.21,13.67-.99,52.19-7.13,52.19-7.13,29.34-4.11,15.28-44.08-12.7-40.24Z"/>
  </g>
</svg>