<?xml version="1.0" encoding="UTF-8"?>
<svg id="Layer_1" data-name="Layer 1" xmlns="http://www.w3.org/2000/svg" viewBox="0 0 967.05 967.05">
  <defs>
    <style>
      .cls-1 {
        fill: #232323;
        stroke-width: 0px;
      }
    </style>
  </defs>
  <path class="cls-1" d="M369.97,394.88c-1.09-14.3-15.45-24.52-29.05-20.01-45.46,15.09-128.37,40.9-115.36,86.54,10.73,37.64,63.36,2.78,80.53,17.73,9.34,8.14-.44,24.95-55.31,36.72-11.34,2.43-16.27,7.29-14.75,17.85h0c1.32,7.46,8.4,12.72,15.7,10.69,29.7-8.25,132.28-31.98,130.44-68.09-3.12-61.05-112.16-18.84-120.53-27.2-6.39-6.39,35.21-33.02,88.98-23.41,11.6,2.07,19.49-10.52,20.28-18.68l-.93-12.16Z"/>
  <path class="cls-1" d="M386.36,369.35c2.74,21.26,11.44,86.33,17.58,128.25.93,6.36,7.15,10.51,13.39,8.95,13.31-3.33,19.37-3.54,27.47-5.86,5.26-1.5,8.57-6.69,7.74-12.09l-8.09-51.62c-.29-1.9.96-3.7,2.85-4.08l40.67-8.16c2.03-.41,3.98.98,4.28,3.02l7.39,50.1c.88,6.17,6.77,10.34,12.89,9.11l24.63-6.49c5.65-1.14,9.43-6.49,8.61-12.2l-18.82-128.43c-.74-5.13-5.54-8.66-10.66-7.83l-26.42,4.66c-4.99.8-8.42,5.45-7.72,10.46l5.02,35.76c.26,1.86-.94,3.6-2.77,4.02l-41.12,9.4c-2.08.47-4.11-.95-4.37-3.07l-4.3-34.45c-.71-5.68-6.35-9.38-11.84-7.75l-29.82,8.22c-4.37,1.29-7.16,5.57-6.58,10.09Z"/>
  <path class="cls-1" d="M550.28,339.28l15.23,121.33c.78,5.1,5.6,8.56,10.68,7.67l35.36-8.42c4.64-.82,7.4-5,7.57-9.7.82-21.98-4.41-84.5-7.81-113.74-.43-3.68-3.38-6.55-7.07-6.89-19.87-1.83-36.49.07-46.75.76-4.57.31-7.89,4.46-7.21,8.99Z"/>
  <path class="cls-1" d="M772.52,355.04c-27.38-14.42-95.04-20.72-127.53-21.01-6.13-.05-11.19,4.65-10.69,10.77l5.08,102.57c.29,3.43,3.73,7.34,7.11,6.73l22.54-2.19c2.87-.52,4.6-3.3,4.48-6.22.46-12.13.38-15.61,1.09-28.63,20.51,1.08,61.7,4.33,82.86,1.68,43.02-5.38,60.23-39.91,15.05-63.7ZM734.95,394.47c-9.89.62-24.43.45-30.01.44-2.97,0-5.38-2.43-5.62-5.39l-.64-7.72c-.3-3.67,2.81-6.71,6.47-6.33,8.34.88,26.6,1.39,34.15,3.35,12.75,3.31,11.95,14.63-4.36,15.65Z"/>
  <path class="cls-1" d="M634.25,464.59c-20.86,4.39-47.92,9.63-65.04,15.15-15.21,4.9-26.09,16.14-23.5,32.4,3.29,20.63,6.58,41.85,10.16,63.49,2.92,17.7,19.6,29.48,36.6,25.79,20.18-4.38,40.79-10.22,64.45-21.19,13.93-6.46,23.6-19.63,20.93-35.21l-4.93-59.01c-3.01-17.55-21.77-24.97-38.66-21.41ZM633.94,539.13c1.06,6.17-3.47,11.5-7.85,13.86-7.44,4-13.84,5.56-20.31,6.71-7.77,1.38-10.6-2.29-12.58-13.49-1.51-8.55-.66-5.16-2.38-15.39-3.58-21.23,7.95-19.44,30.25-23.79,9.41-1.83,10.15,9.16,11.35,16.11l1.53,15.98Z"/>
  <path class="cls-1" d="M493.43,500.49l-61.67,15.71c-14.94,4.11-22.64,19.31-19.4,35.01,3.47,16.81,5.59,25.31,9.37,44.26,2.91,14.57,14.16,25.18,28.52,24.75,17.61-.53,45.77-3.65,63.66-6.04,15.77-2.11,26.88-16.86,25.02-33.22-2.77-24.39-5.85-35.56-8.6-55.18-2.53-18.11-19.86-29.99-36.9-25.3ZM495.53,569.22c.95,7.51-1.51,13.83-7.27,14.53-6.53.8-12.71,2.59-20.31,3.47-5.23.6-9.57-5.07-10.88-11.78-1.7-8.72-2.09-9.67-3.64-17.41-1.45-7.23,1.14-14.05,6.56-15.68l18.65-4.35c8.66-1.6,12.94,4.94,14.16,13.26,1.33,9.01,1.31,6.76,2.73,17.96Z"/>
  <path class="cls-1" d="M817.15,416.09c-4.2-6.51-9.44-8.12-16.5-5.04-8.77,3.83-26.65,17.73-28.1,18.86-5.73,4-9.24,10.61-8.95,16.85l1.78,39.89c-.08.57-.8,1.96-1.24,2.4-.12.08-.23.16-.33.26l-8.24,6.48c-.61.22-1.13.01-1.34-.09-.28-.14-.77-.48-.91-1.19l-4.83-51.95c0-.06-.01-.13-.02-.19-1.03-6.62-6.99-11.17-13.63-10.44l-34.88-.28c-.17,0-.35.01-.52.04-10.36,1.7-16.02,9.14-14.76,19.35l7.62,98.47s0,.07,0,.1c.33,2.94,2.1,5.52,4.72,6.89,1.76.92,3.75,1.21,5.66.88.93-.16,1.84-.48,2.69-.94l13.15-7.12c4.73-2.56,7.36-7.67,6.7-13.06l-10.81-75.77c-.29-2.09.5-3.74,1.45-4.21l10.53-.85c3.37.08,3.59.45,4.08,3.12l8.58,58.46c.01.08.03.15.04.22.91,4.05,3.76,7.39,7.62,8.93,3.85,1.54,8.22,1.09,11.67-1.21.03-.02.06-.04.09-.06l20.9-15.04c4.15-2.79,6.57-7.42,6.49-12.42l1.19-51.98s0-.09,0-.13c-.01-.48.09-.82,2.25-2.22,1.11-.72,2.32-1.95,3.59-3.25,1.05-1.07,2.49-2.54,3.23-2.95.2-.11.74-.41,1.56.06.75.44,1.14,1.17,1.14,1.46.14,9.39.44,37,.44,37.28,0,.09,0,.18.02.28.32,3.07,1.84,5.39,4.16,6.36,2.27.95,4.89.43,7.2-1.42.41-.33.72-.75.91-1.24l7.81-19.79c1.29-3.29,1.79-6.89,1.43-10.41-.08-6.8-.58-28.59-3.67-33.38Z"/>
  <path class="cls-1" d="M398.28,538.95c-10.03-29.53-120.64,5.71-146.52,14.79-3.92,1.37-6.09,5.58-5.37,9.67,1.63,9.28,4.79,27.28,6.73,38.19.6,3.35,3.07,6.08,6.36,6.95,7.66,2.03,14.62,3.25,19.59,3.96,3.81.55,7.04-2.79,6.38-6.59l-1.9-10.88c-.36-2.06,1.14-3.98,3.23-4.13l10.18-.64c1.48-.11,2.87.73,3.48,2.09,1.67,3.74,5.68,14.39,9.08,20.82.87,1.66,2.51,2.79,4.37,3,22.24,2.5,43.51,3.06,56.78,3.11,4.5.02,6.42-5.7,2.84-8.41l-28.62-27.15s65.63-8.78,53.4-44.78ZM333.03,568.83l-35.3,4.17c-4.21.74-8.22-2.07-8.97-6.28h0c-.74-4.21,2.07-8.22,6.28-8.97l34.6-8.15c20.58-3.63,23.97,15.6,3.39,19.23Z"/>
  <path class="cls-1" d="M331.73,333.93c-37.27-23.72-86.73-46.54-158.61-42.07-13.88.86-26.55,4.28-23.57,15.15l38.36,29.38c14.14,10.83,23.44,26.9,25.42,44.6.02.19.04.38.07.57,1.35,11.13,12.98,17.88,23.3,13.5l96.38-43.06c8.42-3.57,6.37-13.16-1.35-18.08Z"/>
  <path class="cls-1" d="M388.72,657.12c-26.91,35.04-65.58,73.4-134.66,93.78-13.34,3.93-26.41,5.06-27.33-6.17l26-40.73c9.58-15.01,12.83-33.29,8.63-50.6-.05-.19-.09-.37-.13-.56-2.54-10.92,6.08-21.24,17.28-20.66l105.3,7.5c9.14.47,10.49,10.19,4.92,17.45Z"/>
  <path class="cls-1" d="M166.85,508.64l7.18,40.7c1.16,6.6,3.29,12.54,5.63,15.74l37.19,19.22c7.31,2.96,15.01-3.28,13.65-11.04l-18.76-106.42c-1.37-7.76-10.74-10.99-16.6-5.71l-28.37,30.78c-1.11,3.81-1.07,10.12.09,16.72Z"/>
</svg>